<svg 
          width="14.003573417663574" 
          height="26.003047943115234" fill="none" 
          xmlns="http://www.w3.org/2000/svg">
          <path d="M 13.709786435107642 0.2937876962696031 C 13.802912912027107 0.3866790472950405 13.876797919413406 0.49703018446816477 13.927210813000755 0.6185204529066853 C 13.977623706588105 0.740010721345206 14.003573417663574 0.8702530073550298 14.003573417663574 1.0017875890240182 C 14.003573417663574 1.1333221706930066 13.977623706588105 1.263564695121392 13.927210813000755 1.3850549635599125 C 13.876797919413406 1.5065452319984332 13.802912912027107 1.6168963691715572 13.709786435107642 1.7097877201969947 L 2.4157865786436545 13.001786231975391 L 13.709786435107642 24.293785220590912 C 13.897559694715001 24.481558479212698 14.003048896825273 24.736233863769353 14.003048896825273 25.00178535176389 C 14.003048896825273 25.267336839758425 13.897559694715001 25.52201222431508 13.709786435107642 25.709785482936866 C 13.522013175500282 25.89755874155865 13.267337789606897 26.003047943115234 13.001786300218548 26.003047943115234 C 12.736234810830199 26.003047943115234 12.481559424936814 25.89755874155865 12.293786165329454 25.709785482936866 L 0.2937869825559334 13.709786363148368 C 0.20066050563646715 13.61689501212293 0.12677454457591641 13.50654292127556 0.07636165098856755 13.38505265283704 C 0.0259487574012187 13.263562384398519 0 13.13332081364438 0 13.001786231975391 C 0 12.870251650306402 0.0259487574012187 12.740010079552263 0.07636165098856755 12.618519811113742 C 0.12677454457591641 12.497029542675222 0.20066050563646715 12.386677451827852 0.2937869825559334 12.293786100802414 L 12.293786165329454 0.2937876962696031 C 12.386677516842456 0.2006612198389347 12.497029608269036 0.12677549758475468 12.618519877345229 0.07636260426201061 C 12.74001014642142 0.025949710939266547 12.870251717859167 0 13.001786300218548 0 C 13.133320882577928 0 13.263562454015673 0.025949710939266547 13.385052723091865 0.07636260426201061 C 13.506542992168058 0.12677549758475468 13.61689508359464 0.2006612198389347 13.709786435107642 0.2937876962696031 L 13.709786435107642 0.2937876962696031 Z" fill="rgb(4.000000236555934,69.00000348687172,77.00000301003456)"/>
        </svg>